<svg width="128" height="32" fill="none" xmlns="http://www.w3.org/2000/svg"><path fill="#fff" d="M0 0h128v31.0303H0z"/><rect x=".775758" y=".775758" width="126.448" height="29.4788" rx="2.32727" stroke="#CFD8E1" stroke-width="1.55152"/><g clip-path="url(#a)"><path fill-rule="evenodd" clip-rule="evenodd" d="M15.4674 9.7937c-2.744 0-5.0126 2.0353-5.3787 4.6786l-1.5555-.0678c.40566-3.4698 3.3555-6.16231 6.9342-6.16231 3.856 0 6.9819 3.12591 6.9819 6.98181 0 3.6342-2.7766 6.6198-6.3242 6.9513l1.6472 1.122-.8735 1.2823-3.4077-2.3214c-.1849-.1259-.3064-.3255-.3333-.5476-.027-.2221.0432-.445.1926-.6115l2.7532-3.0694 1.1549 1.036-1.4133 1.5757c2.8228-.194 5.0525-2.5453 5.0525-5.4174 0-2.9991-2.4312-5.4303-5.4303-5.4303Z" fill="#BABFCB"/><path d="M35.6605 12.3976V20h-1.0644v-6.6576h-4.4094V20h-1.0752v-7.6024h6.549Zm4.6623 7.6676c-.572 0-1.086-.1267-1.5422-.3802-.4561-.2534-.8145-.6009-1.0752-1.0426-.2534-.4489-.3801-.9557-.3801-1.5205 0-.5647.1267-1.0679.3801-1.5096.2607-.4489.6191-.7964 1.0752-1.0426.4562-.2534.9702-.3801 1.5422-.3801.572 0 1.0825.1267 1.5314.3801.4561.2462.8109.5937 1.0643 1.0426.2607.4417.391.9449.391 1.5096 0 .5648-.1303 1.0716-.391 1.5205-.2534.4417-.6082.7892-1.0643 1.0426-.4489.2535-.9594.3802-1.5314.3802Zm0-.9123c.3693 0 .6987-.0833.9883-.2498.2969-.1738.5286-.4127.6951-.7168.1665-.3114.2498-.6661.2498-1.0644 0-.3982-.0833-.7493-.2498-1.0534-.1665-.3114-.3982-.5503-.6951-.7168-.2896-.1666-.619-.2498-.9883-.2498-.3692 0-.7023.0832-.9992.2498-.2896.1665-.5213.4054-.695.7168-.1666.3041-.2498.6552-.2498 1.0534 0 .3983.0832.753.2498 1.0644.1737.3041.4054.543.695.7168.2969.1665.63.2498.9992.2498Zm6.7295-1.5857h-1.1946V20H44.815v-5.7561h1.0427v2.4328h1.2163l1.8681-2.4328h1.1186l-2.183 2.7694L50.2128 20h-1.2273l-1.9332-2.4328Zm6.2002-3.3776c.7965 0 1.4047.1955 1.8246.5864.4272.391.6408.9739.6408 1.7486V20h-.9883v-.7602c-.1738.2679-.4236.4742-.7494.619-.3186.1376-.6987.2064-1.1404.2064-.6444 0-1.162-.1557-1.553-.467-.3838-.3114-.5756-.7205-.5756-1.2273s.1846-.9123.5539-1.2164c.3692-.3113.9557-.467 1.7594-.467h1.6508v-.2063c0-.4489-.1303-.7929-.391-1.0318-.2607-.2389-.6444-.3584-1.1512-.3584-.3403 0-.6734.0579-.9992.1738-.3258.1086-.601.257-.8254.4453l-.4344-.782c.2968-.2389.6516-.4199 1.0643-.543.4127-.1304.8508-.1955 1.3141-.1955Zm-.2389 5.0719c.3982 0 .7422-.0869 1.0318-.2607.2896-.181.4996-.4344.6299-.7602v-.8037h-1.6074c-.8833 0-1.325.2969-1.325.8906 0 .2896.1122.5177.3367.6842.2245.1665.5358.2498.934.2498Zm7.6033-2.259c.3837.1013.6806.2642.8906.4887.2099.2245.3149.5032.3149.8363 0 .3403-.1158.6444-.3475.9123-.2317.2606-.5539.467-.9666.619-.4055.1448-.8616.2172-1.3685.2172-.4271 0-.8471-.0543-1.2598-.1629-.4055-.1158-.7675-.2787-1.0861-.4887l.315-.7928c.2751.1737.5901.3113.9449.4127.3548.0941.7132.1412 1.0752.1412.4923 0 .8833-.0833 1.1729-.2498.2969-.1738.4453-.4055.4453-.6951 0-.2679-.1195-.4743-.3584-.6191-.2317-.1448-.5611-.2172-.9883-.2172H58.347v-.7494h.9775c.391 0 .6987-.0688.9231-.2063.2245-.1376.3367-.3258.3367-.5648 0-.2606-.1339-.4634-.4018-.6082-.2607-.1448-.6155-.2172-1.0644-.2172-.572 0-1.1765.1485-1.8137.4453L57.022 14.7c.7023-.3548 1.4372-.5321 2.2047-.5321.4634 0 .8797.0651 1.249.1954.3693.1304.6589.315.8688.5539.21.239.315.5105.315.8146 0 .2824-.0941.5358-.2824.7602-.1882.2245-.4416.3946-.7602.5105Zm4.8432-2.8129c.7965 0 1.4047.1955 1.8246.5864.4272.391.6408.9739.6408 1.7486V20h-.9883v-.7602c-.1738.2679-.4236.4742-.7494.619-.3186.1376-.6987.2064-1.1404.2064-.6444 0-1.1621-.1557-1.553-.467-.3838-.3114-.5757-.7205-.5757-1.2273s.1847-.9123.5539-1.2164c.3693-.3113.9558-.467 1.7594-.467h1.6509v-.2063c0-.4489-.1304-.7929-.391-1.0318-.2607-.2389-.6444-.3584-1.1512-.3584-.3403 0-.6734.0579-.9992.1738-.3258.1086-.601.257-.8254.4453l-.4345-.782c.2969-.2389.6517-.4199 1.0644-.543.4127-.1304.8507-.1955 1.3141-.1955Zm-.2389 5.0719c.3982 0 .7421-.0869 1.0317-.2607.2897-.181.4996-.4344.63-.7602v-.8037h-1.6074c-.8833 0-1.325.2969-1.325.8906 0 .2896.1122.5177.3367.6842.2244.1665.5358.2498.934.2498Zm8.8717-4.1053h-2.107V20h-1.0426v-4.8438h-2.107v-.9123h5.2566v.9123Zm3.7269 1.0426c.7313.0072 1.2888.1738 1.6726.4996.3837.3258.5756.7856.5756 1.3793 0 .6226-.21 1.1041-.6299 1.4444-.4127.3331-1.0065.496-1.7812.4888L75.159 20v-5.7561h1.0426v1.944l1.6182.0109ZM77.57 19.218c.4707.0073.8254-.0868 1.0644-.2823.2461-.1955.3692-.4851.3692-.8689 0-.3765-.1194-.6516-.3584-.8254-.2317-.1738-.5901-.2643-1.0752-.2715l-1.3684-.0217v2.259l1.3684.0108Zm11.9548-2.0635c0 .0797-.0072.1847-.0217.315h-4.67c.0651.5068.286.9159.6625 1.2272.3837.3041.8579.4562 1.4227.4562.6878 0 1.2417-.2317 1.6617-.6951l.5756.6734c-.2607.304-.5865.5357-.9775.695-.3837.1593-.8145.239-1.2924.239-.6082 0-1.1476-.1231-1.6182-.3693-.4706-.2534-.8363-.6046-1.0969-1.0535-.2534-.4489-.3802-.9557-.3802-1.5205 0-.5575.1231-1.0607.3693-1.5096.2534-.4489.5973-.7964 1.0318-1.0426.4416-.2534.9376-.3801 1.4879-.3801.5502 0 1.039.1267 1.4661.3801.4345.2462.7711.5937 1.0101 1.0426.2462.4489.3692.963.3692 1.5422Zm-2.8454-2.0852c-.4996 0-.9196.152-1.2599.4561-.333.3041-.5285.7023-.5864 1.1947h3.6926c-.058-.4851-.2571-.8797-.5974-1.1838-.333-.3113-.7493-.467-1.2489-.467Zm12.6627-.8254V20h-8.1998v-5.7561h1.0426v4.8438h2.5414v-4.8438h1.0426v4.8438h2.5306v-4.8438h1.0426Zm.8579 4.8438v2.1395h-.9774V20h-.9666v-.9123h1.944Zm6.369-1.9332c0 .0797-.007.1847-.022.315h-4.67c.065.5068.286.9159.662 1.2272.384.3041.858.4562 1.423.4562.688 0 1.242-.2317 1.662-.6951l.576.6734c-.261.304-.587.5357-.978.695-.384.1593-.814.239-1.292.239-.609 0-1.148-.1231-1.619-.3693-.47-.2534-.836-.6046-1.096-1.0535-.254-.4489-.381-.9557-.381-1.5205 0-.5575.123-1.0607.37-1.5096.253-.4489.597-.7964 1.031-1.0426.442-.2534.938-.3801 1.488-.3801.551 0 1.039.1267 1.466.3801.435.2462.772.5937 1.011 1.0426.246.4489.369.963.369 1.5422Zm-2.846-2.0852c-.499 0-.919.152-1.26.4561-.333.3041-.528.7023-.586 1.1947h3.693c-.058-.4851-.257-.8797-.598-1.1838-.333-.3113-.749-.467-1.249-.467Zm-1.021-1.8463c-.152 0-.282-.0507-.391-.1521-.108-.1086-.162-.2425-.162-.4018s.054-.2932.162-.4019c.109-.1086.239-.1629.391-.1629.152 0 .283.0543.391.1629.109.1087.163.2426.163.4019 0 .1593-.054.2932-.163.4018-.108.1014-.239.1521-.391.1521Zm2.02 0c-.152 0-.282-.0507-.391-.1521-.108-.1086-.162-.2425-.162-.4018s.054-.2932.162-.4019c.109-.1086.239-.1629.391-.1629.153 0 .283.0543.391.1629.109.1087.163.2426.163.4019 0 .1593-.054.2932-.163.4018-.108.1014-.238.1521-.391.1521Z" fill="#868A95"/></g><defs><clipPath id="a"><path fill="#fff" transform="translate(6.20605 6.69043)" d="M0 0h101.721v18.6182H0z"/></clipPath></defs></svg>