<svg width="149" height="31" fill="none" xmlns="http://www.w3.org/2000/svg"><path d="M.775 3.1C.775 1.81594 1.81594.775 3.1.775h27.125v29.45H3.1c-1.28406 0-2.325-1.0409-2.325-2.325V3.1Z" fill="#fff" stroke="#CFD8E1" stroke-width="1.55"/><path d="m13.9502 18.5996 3.1-3.1-3.1-3.1" stroke="#BABFCB" stroke-width="1.55"/><path fill="#fff" stroke="#CFD8E1" stroke-width="1.55" d="M29.4498.775h29.45v29.45h-29.45z"/><path d="M45.217 10.655v7.595h-1.0742v-6.6511h-1.7143v-.9439h2.7885Z" fill="#868A95"/><path fill="#fff" stroke="#CFD8E1" stroke-width="1.55" d="M58.9.775h29.45v29.45H58.9z"/><path d="M70.8494 18.3151c-.2025 0-.3761-.0687-.5208-.2061-.1447-.1447-.217-.3255-.217-.5425 0-.2098.0723-.3834.217-.5209.1447-.1446.3183-.217.5208-.217s.3725.0688.51.2062c.1374.1374.2061.3147.2061.5317 0 .217-.0723.3978-.217.5425-.1374.1374-.3038.2061-.4991.2061Zm2.4582 0c-.2025 0-.3761-.0687-.5208-.2061-.1447-.1447-.217-.3255-.217-.5425 0-.2098.0723-.3834.217-.5209.1447-.1446.3183-.217.5208-.217s.3725.0688.51.2062c.1374.1374.2061.3147.2061.5317 0 .217-.0723.3978-.217.5425-.1374.1374-.3038.2061-.4991.2061Zm2.4582 0c-.2025 0-.3761-.0687-.5208-.2061-.1447-.1447-.217-.3255-.217-.5425 0-.2098.0723-.3834.217-.5209.1447-.1446.3183-.217.5208-.217s.3725.0688.51.2062c.1374.1374.2061.3147.2061.5317 0 .217-.0723.3978-.217.5425-.1374.1374-.3038.2061-.4991.2061Z" fill="#BABFCB"/><path fill="#fff" stroke="#CFD8E1" stroke-width="1.55" d="M88.3502.775h29.45v29.45h-29.45z"/><path d="M99.9989 10.655v7.595h-1.0741v-6.6511h-1.7143v-.9439h2.7884Zm4.7641 7.6818c-.6 0-1.135-.1519-1.605-.4557-.463-.311-.829-.7595-1.096-1.3454-.268-.5859-.402-1.2803-.402-2.0832 0-.8029.134-1.4973.402-2.0832.267-.5859.633-1.0307 1.096-1.3345.47-.3111 1.005-.4666 1.605-.4666.593 0 1.122.1555 1.584.4666.471.3038.84.7486 1.107 1.3345.268.5859.402 1.2803.402 2.0832 0 .8029-.134 1.4973-.402 2.0832-.267.5859-.636 1.0344-1.107 1.3454-.462.3038-.991.4557-1.584.4557Zm0-.9656c.608 0 1.093-.2496 1.454-.7487.369-.4991.554-1.2224.554-2.17s-.185-1.6709-.554-2.17c-.361-.4991-.846-.7486-1.454-.7486-.614 0-1.106.2495-1.475.7486-.362.4991-.543 1.2224-.543 2.17s.181 1.6709.543 2.17c.369.4991.861.7487 1.475.7487Z" fill="#868A95"/><path d="M117.8.775h27.125c1.284 0 2.325 1.04094 2.325 2.325v24.8c0 1.2841-1.041 2.325-2.325 2.325H117.8V.775Z" fill="#fff" stroke="#CFD8E1" stroke-width="1.55"/><path d="m130.976 18.5996 3.1-3.1-3.1-3.1" stroke="#BABFCB" stroke-width="1.55"/></svg>